# xmcd
#
# Track frame offsets:
#	150
#	18562
#	34682
#	47975
#	64797
#	84892
#	95780
#	114415
#	135885
#	148512
#	163762
#	176030
#	192000
#	204290
#	219305
#
# Disc length: 3085
#
# Revision: 3
# Processed by: cddbd v1.5.1PL0 Copyright (c) Steve Scherf et al.
# Submitted via: audiograbber 1.80
# Normalized: r1:TDELIM( - ),TSWAP
#
DISCID=c90c0b0f
DTITLE=Pop Shop - Schmuse Country
DYEAR=1900
DGENRE=
TTITLE0=KARLA Bonoff - Someone To Lay Down Beside Me
TTITLE1=Willie Nelson - I´m Confessin
TTITLE2=Chalie Rich - Behind Closed Doors
TTITLE3=J.D. Souther - The Last in Love
TTITLE4=Randy Meisner - Anyway Bye Bye
TTITLE5=Marty Robbins - I Don´t Know Why
TTITLE6=Ozark Mountain Daredevils - Oh, Darlin´
TTITLE7=Chalie Daniels Band - Talking To The Moon
TTITLE8=Larry Gatlin - I Don´t Wanna Cry
TTITLE9=Tammy Wynette - You And Me
TTITLE10=Ray Price - I Can´t Help It
TTITLE11=Atlanta Rhythm Section - Pretty Girl
TTITLE12=Poco - Honky Tonk Downstairs
TTITLE13=Barbara Fairchild - For All The Right Reasons
TTITLE14=Tanja Tucker - You Are So Beautiful
EXTD=
EXTT0=
EXTT1=
EXTT2=
EXTT3=
EXTT4=
EXTT5=
EXTT6=
EXTT7=
EXTT8=
EXTT9=
EXTT10=
EXTT11=
EXTT12=
EXTT13=
EXTT14=
PLAYORDER=
